<?xml version="1.0" encoding="UTF-8"?>
<!-- Creator: Vertopal - https://www.vertopal.com -->
<svg xmlns="http://www.w3.org/2000/svg" width="350" height="241" version="1.1" viewBox="0 0 350 241"><path fill="#C53541" fill-rule="nonzero" d="M164.51 198.14c0.2,-2.54 0.76,-5.04 1.66,-7.45l-10.39 1.33 8.73 6.12zm9.83 -18.81l-6.84 -2.15 1.66 7.77c1.42,-2.06 3.16,-3.97 5.18,-5.62zm12.71 -5.76l-6.11 -6.96 -1.16 9.26c2.35,-1.13 4.81,-1.9 7.27,-2.3zm10.03 7.36c3.88,0 7.52,1.05 10.71,2.91 -7.45,-7.51 -19.35,-9.11 -28.64,-3.19 -6.45,4.1 -10.16,10.87 -10.6,17.95 2.29,-0.09 5.45,-0.14 7.81,-0.16 2.66,-10.1 10.46,-17.51 20.72,-17.51zm30.85 26.98c15.41,-16.87 35.27,-20.52 43.65,-21.29 -12.79,8.4 -27.5,15.63 -43.65,21.29zm-28.53 -4.85c12.56,-8.69 38.13,-22.09 71.62,-17.28 0.03,0 0.06,0.01 0.09,0.01l0 0c-0.03,0 -0.06,0 -0.09,-0.01 -8.58,-0.61 -35.33,-0.61 -59.4,19.23 -4.08,-0.82 -8.16,-1.47 -12.22,-1.95zm1.43 12.54c-2.49,0.55 -5,1.06 -7.54,1.54 -1.48,0.27 -2.96,0.53 -4.43,0.78 -24.38,-7.45 -49.24,-7.72 -64.8,-6.82 -3.97,0.13 -7.32,0.4 -10.1,0.73 16.8,-3.44 30.62,-4.49 40.57,-4.63 18.65,0.16 37.46,3.47 50.27,7.58 -1.24,0.22 -3.01,0.63 -3.97,0.82zm-97.86 -1.43l0 0c24.44,-4.04 49.44,3.9 56.92,6.59 -0.52,0.01 -32.31,0.31 -56.92,-6.59zm199.25 -158.92c11.53,11.06 17.74,24.37 20.88,39.29 6.11,33.75 -14.32,67.2 -50.29,91.27 -9.37,-2.46 -49.62,-10.72 -90.66,16.02 -32.22,-0.75 -60.21,6.64 -70.13,9.64 -3.59,0.98 -5.84,1.68 -5.84,1.68l0 0c-2.51,0.6 -3.65,1.08 -3.65,1.08 0,0 5.91,4.3 24.91,7.77 8.2,1.85 18.66,3.48 30.02,3.48 4.17,0.11 8.4,0.1 12.69,-0.03 4.66,-0.14 9.38,-0.41 14.16,-0.82 19.26,-1.69 37.49,-5.62 54.13,-11.34 57.35,-19.75 95.69,-60.95 91.74,-105.97 -1.77,-20.4 -11.53,-37.42 -27.96,-52.07zm-132.54 13.92c-0.21,-21.18 -26.9,-27.13 -53.03,-21.46 -25.07,5.44 -51.55,24.29 -54.61,45.72 -2.74,19.15 12.6,20.23 15.45,19.88 1.9,-0.24 2.15,-1.36 1.31,-2.83 -1.13,-1.98 -3.81,-6.99 0,-18.64 3.81,-11.65 17.66,-29.58 41.31,-33.89 23.35,-4.26 33.47,5.51 29.02,23.3 -4.25,17 -20.97,30.5 -36.86,37.28 -5.37,2.29 -10.33,3.82 -13.99,4.78 0.47,-1.32 0.94,-2.63 1.42,-3.93 11.02,-29.66 20.01,-45.67 21.82,-49.36 1.53,-3.11 -0.21,-4.87 -4.02,-3.39 -4.11,1.6 -12.71,7.42 -18.86,17.58 -6.14,10.17 -17.01,31.43 -24.99,54.44 -7.94,22.9 -10.1,40.82 -3.6,49.36 2.46,3.24 5.74,4.76 6.82,4.95 1.93,0.35 3.77,0.59 4.53,-4.47 0.83,-5.54 5.29,-28.95 13.04,-53.68 6.61,-1.28 17.79,-4.17 30.27,-10.53 22.8,-11.61 45.19,-32.65 44.97,-55.11zm42.65 113.95l3.71 -9.16 -9.33 3.98c2.08,1.42 3.96,3.16 5.62,5.18zm-18.82 -9.82c2.56,0.19 5.07,0.75 7.45,1.65l-2.32 -6.93 -5.13 5.28zm130.91 -136.95c0.2,-0.52 0.5,-0.96 0.86,-1.34 0.37,-0.38 0.8,-0.68 1.3,-0.91 0.5,-0.22 1.05,-0.33 1.65,-0.33 0.58,0 1.13,0.11 1.63,0.33 0.5,0.23 0.94,0.53 1.3,0.91 0.37,0.38 0.65,0.82 0.86,1.34 0.21,0.51 0.31,1.05 0.31,1.63 0,0.57 -0.1,1.11 -0.31,1.62 -0.21,0.51 -0.49,0.96 -0.86,1.34 -0.36,0.38 -0.8,0.69 -1.3,0.9 -0.5,0.22 -1.05,0.33 -1.63,0.33 -0.6,0 -1.15,-0.11 -1.65,-0.33 -0.5,-0.21 -0.93,-0.52 -1.3,-0.9 -0.36,-0.38 -0.66,-0.83 -0.86,-1.34 -0.2,-0.51 -0.31,-1.05 -0.31,-1.62 0,-0.58 0.11,-1.12 0.31,-1.63zm-0.36 5.78c0.53,0.52 1.16,0.94 1.86,1.24 0.73,0.29 1.49,0.44 2.31,0.44 0.81,0 1.57,-0.15 2.28,-0.44 0.71,-0.3 1.34,-0.72 1.87,-1.24 0.54,-0.53 0.96,-1.15 1.27,-1.86 0.3,-0.72 0.45,-1.48 0.45,-2.29 0,-0.82 -0.15,-1.58 -0.45,-2.3 -0.31,-0.71 -0.73,-1.33 -1.27,-1.87 -0.53,-0.53 -1.16,-0.95 -1.87,-1.26 -0.71,-0.31 -1.47,-0.46 -2.28,-0.46 -0.82,0 -1.58,0.15 -2.31,0.46 -0.7,0.31 -1.33,0.73 -1.86,1.26 -0.53,0.54 -0.95,1.16 -1.26,1.87 -0.31,0.72 -0.46,1.48 -0.46,2.3 0,0.81 0.15,1.57 0.46,2.29 0.31,0.71 0.73,1.33 1.26,1.86zm-139.25 188.27c-90.24,7.88 -167.81,-33.58 -173.19,-95.22 -5.4,-61.62 63.75,-116.37 153.99,-124.27 90.24,-7.89 167.39,34.06 172.78,95.69 5.39,61.62 -63.34,115.89 -153.58,123.8zm160.87 -124.45c-5.74,-65.61 -86.31,-109.94 -180.65,-101.69 -94.34,8.26 -166.45,65.95 -160.71,131.56 5.71,65.18 86.73,109.47 181.07,101.22 94.35,-8.26 165.99,-65.9 160.29,-131.09zm-18.36 -70.03l0.91 0c0.13,0 0.27,0 0.41,0.02 0.14,0.01 0.28,0.05 0.4,0.1 0.12,0.05 0.22,0.13 0.29,0.23 0.08,0.1 0.11,0.24 0.11,0.42 0,0.34 -0.1,0.55 -0.3,0.65 -0.2,0.1 -0.46,0.14 -0.76,0.14l-1.06 0 0 -1.56zm0 2.68l0.5 0 1.49 2.55 1.53 0 -1.57 -2.62c0.44,-0.05 0.82,-0.23 1.12,-0.51 0.3,-0.3 0.45,-0.71 0.45,-1.25 0,-0.63 -0.2,-1.12 -0.61,-1.46 -0.4,-0.34 -1.01,-0.51 -1.83,-0.51l-2.48 0 0 6.35 1.4 0 0 -2.55zm-57.8 24.78c-2.49,2.37 -5.31,7.3 -7.43,12.59 -0.6,1.5 -1.38,3.44 -2.27,5.71 -4.09,1.71 -7.56,3.55 -9.07,4.63 -3.17,2.26 -4.51,5.12 -4.01,7.73 0.51,2.68 3.26,2.64 6.36,1.38 0.59,-0.24 1.26,-0.51 1.99,-0.81 -1.44,4.25 -2.86,8.82 -4.06,13.41 -4.37,16.86 -7.79,39.55 9.7,40.94 10.99,0.88 18.68,-9.17 22.27,-15.94 1.64,-3.08 2.58,-6.91 0.7,-8.11 -1.27,-0.81 -2.75,-0.1 -4.87,2.15 -1.81,1.91 -7.93,9.32 -12.09,8.74 -5.2,-0.73 -5.89,-9.09 0.81,-32.75 1.53,-5.38 3.04,-10.31 4.48,-14.78 2.17,-0.71 4.39,-1.39 6.63,-2 6.16,-1.68 16.05,-3.53 19.01,-3.81 3.72,-0.36 4.39,-4.05 0.01,-5.9 -3.25,-1.37 -10.97,-1.89 -21.75,0.29 3.11,-8.7 5.51,-14.29 6.31,-16.15 1.21,-2.77 -0.07,-4.21 -2.45,-3.71 -2.55,0.55 -7.47,3.74 -10.27,6.39zm-43.9 35.79c4.84,-0.32 7.89,2.17 8.86,5.32 0.59,1.95 1.74,2.26 3.68,1.52 3.61,-1.39 7.64,-9.23 4.2,-13.95 -2.01,-2.76 -8.32,-4.71 -17.11,-3.11 -12.6,2.27 -22.24,10.68 -22.24,21.82 0,10.27 9.47,15.28 14.51,19.17 5.08,3.91 6.56,6.67 5.61,11.01 -0.76,3.47 -3.71,6.46 -8.58,6.89 -5.51,0.48 -8.86,-3.32 -8.86,-7.56 0.14,-2.47 -1.41,-2.61 -3.46,-1.76 -3.13,1.29 -7.06,5.57 -7.56,10.44 -0.31,3.07 0.71,5.23 2.67,7.12 2.95,2.86 8.13,4.38 16.55,2.95 14.24,-2.42 24.83,-13.43 24.85,-24.89 0.01,-9.71 -7.35,-13.27 -12.69,-17.19 -5.3,-3.88 -7.93,-6.58 -7.69,-10.61 0.25,-4.32 3.18,-6.91 7.26,-7.17zm-68.45 -74.56c47.47,-8.62 92.06,-2.7 123.43,14.67 -30,-17.49 -69.78,-26.07 -114.45,-22.16 -85.68,7.5 -150.96,59.22 -145.88,117.31 1.79,20.4 11.54,37.41 27.98,52.06 -11.53,-11.06 -17.75,-24.36 -20.89,-39.28 -9.78,-54.1 48.39,-108.33 129.81,-122.6zm4.49 134.17c-6.52,0.4 -10.07,-8.01 -4.98,-24.55 3.96,-12.87 10.74,-22.72 17.23,-23.33 6.82,-0.63 9.2,6.86 4.62,23.43 -4.37,15.81 -11.11,24.1 -16.87,24.45zm33.88 -27.47c5.3,-21.45 -4.59,-32.22 -18.56,-31.3 -16.07,1.06 -33.66,16.03 -38.2,38.74 -4.86,24.35 7.95,32.98 21.71,31.22 13.17,-1.7 28.93,-13.9 35.05,-38.66z"/></svg>
